<?xml version="1.0" encoding="utf-8"?>
<!-- Generator: Adobe Illustrator 24.0.0, SVG Export Plug-In . SVG Version: 6.00 Build 0)  -->
<svg version="1.1" id="Capa_1" xmlns="http://www.w3.org/2000/svg" xmlns:xlink="http://www.w3.org/1999/xlink" x="0px" y="0px"
	 viewBox="0 0 230 117" style="enable-background:new 0 0 230 117;" xml:space="preserve">
<style type="text/css">
	.st0{fill:#FFFFFF;}
</style>
<path class="st0" d="M220.7,56.5L172.3,8c-1.1-1.1-3-1.1-4.1,0c-1.1,1.1-1.1,3,0,4.1l43.4,43.4H11.4c-1.7,0-3,1.3-3,3s1.3,3,3,3
	h200.1l-43.4,43.4c-1.1,1.1-1.1,3,0,4.1c0.6,0.6,1.3,0.9,2,0.9c0.7,0,1.5-0.3,2-0.9l48.4-48.4C221.9,59.4,221.9,57.6,220.7,56.5z"/>
</svg>
